<svg width="32" height="32" viewBox="0 0 32 32" fill="none" xmlns="http://www.w3.org/2000/svg">
<path fill-rule="evenodd" clip-rule="evenodd" d="M2.66675 15.9999C2.66675 8.63993 8.62675 2.6666 15.9867 2.6666C23.3601 2.6666 29.3334 8.63993 29.3334 15.9999C29.3334 23.3599 23.3601 29.3333 15.9867 29.3333C8.62675 29.3333 2.66675 23.3599 2.66675 15.9999ZM21.2934 10.6666H25.2267C23.9467 8.46658 21.9067 6.75991 19.4534 5.91991C20.2534 7.39991 20.8667 8.99991 21.2934 10.6666ZM16.0001 5.38661C17.1067 6.98661 17.9734 8.75994 18.5467 10.6666H13.4534C14.0267 8.75994 14.8934 6.98661 16.0001 5.38661ZM5.33341 15.9999C5.33341 16.9199 5.46675 17.8133 5.68008 18.6666H10.1867C10.0801 17.7866 10.0001 16.9066 10.0001 15.9999C10.0001 15.0933 10.0801 14.2133 10.1867 13.3333H5.68008C5.46675 14.1866 5.33341 15.0799 5.33341 15.9999ZM6.77342 21.3333H10.7067C11.1334 22.9999 11.7467 24.5999 12.5467 26.0799C10.0934 25.2399 8.05342 23.5466 6.77342 21.3333ZM6.77342 10.6666H10.7067C11.1334 8.99991 11.7467 7.39991 12.5467 5.91991C10.0934 6.75991 8.05342 8.45324 6.77342 10.6666ZM16.0001 26.6133C14.8934 25.0133 14.0267 23.2399 13.4534 21.3333H18.5467C17.9734 23.2399 17.1067 25.0133 16.0001 26.6133ZM12.8801 18.6666H19.1201C19.2401 17.7866 19.3334 16.9066 19.3334 15.9999C19.3334 15.0933 19.2401 14.1999 19.1201 13.3333H12.8801C12.7601 14.1999 12.6667 15.0933 12.6667 15.9999C12.6667 16.9066 12.7601 17.7866 12.8801 18.6666ZM19.4534 26.0799C20.2534 24.5999 20.8667 22.9999 21.2934 21.3333H25.2267C23.9467 23.5333 21.9067 25.2399 19.4534 26.0799ZM22.0001 15.9999C22.0001 16.9066 21.9201 17.7866 21.8134 18.6666H26.3201C26.5334 17.8133 26.6667 16.9199 26.6667 15.9999C26.6667 15.0799 26.5334 14.1866 26.3201 13.3333H21.8134C21.9201 14.2133 22.0001 15.0933 22.0001 15.9999Z" fill="#F2F2F2"/>
</svg>
