<svg width="32" height="32" viewBox="0 0 32 32" fill="none" xmlns="http://www.w3.org/2000/svg">
<path fill-rule="evenodd" clip-rule="evenodd" d="M20.815 6.66669C21.7084 6.66669 22.5084 7.10669 22.9884 7.78669L28.2684 15.2267C28.6017 15.6934 28.6017 16.3067 28.2684 16.7734L22.9884 24.2134C22.5084 24.8934 21.7084 25.3334 20.815 25.3334L6.14836 25.32C4.68169 25.32 3.48169 24.1334 3.48169 22.6667V9.33335C3.48169 7.86669 4.68169 6.68002 6.14836 6.68002L20.815 6.66669ZM7.48169 22.6667H20.815L25.5484 16L20.815 9.33335H7.48169C6.74836 9.33335 6.14836 9.93335 6.14836 10.6667V21.3334C6.14836 22.0667 6.74836 22.6667 7.48169 22.6667Z" fill="#F2F2F2"/>
</svg>
