<svg width="136" height="33" viewBox="0 0 136 33" fill="none" xmlns="http://www.w3.org/2000/svg">
<g clip-path="url(#clip0_1:40)">
<path d="M45.5256 0.369629C44.4039 0.736894 43.2662 1.08819 42.1124 1.40755C30.5427 4.48939 18.8448 3.89857 8.28466 0.369629L6.23352 13.4315L10.3839 14.5493L14.2137 7.55526C15.2393 7.76284 16.2649 7.93849 17.3065 8.09817L18.4923 15.9704L22.7708 16.3377L25.3187 8.7848C26.3603 8.81674 27.4179 8.81674 28.4595 8.7848L31.0074 16.3377L35.286 15.9704L36.4718 8.0822C37.4973 7.92252 38.5229 7.74688 39.5645 7.53929L43.3944 14.5493L47.5447 13.4475L45.5256 0.369629Z" fill="white"/>
<path d="M37.1928 16.3697L33.363 23.3797C32.3374 23.1721 31.3118 22.9965 30.2703 22.8368L29.0844 14.9486L24.7899 14.5813L22.242 22.1342C21.1844 22.1023 20.1428 22.1023 19.1012 22.1342L16.5533 14.5813L12.2747 14.9486L11.0889 22.8208C10.0473 22.9805 9.02176 23.1561 7.99619 23.3637L4.16634 16.3697L0.0159912 17.4875L2.06713 30.5334C12.6273 27.0045 24.3252 26.4136 35.8949 29.5114C37.0486 29.8148 38.1864 30.1661 39.3081 30.5494L41.3592 17.4875L37.1928 16.3697Z" fill="white"/>
<path d="M69.354 8.51357C69.354 8.51357 67.4952 6.08643 63.5532 6.08643C59.5951 6.08643 54.4192 8.33792 54.4192 15.4597C54.4192 22.5814 59.5951 24.8968 63.5532 24.8968C67.5112 24.8968 68.7771 22.8689 69.354 21.8788C69.354 26.2062 65.3639 28.314 60.3322 25.823L58.0728 30.6932C64.5627 33.9667 74.1454 33.2162 74.1454 21.9108V6.53353H70.0271L69.354 8.51357ZM64.5627 19.803C62.9603 19.803 60.5405 18.7012 60.5405 15.4597C60.5405 12.2182 62.9603 11.1164 64.5627 11.1164C66.1652 11.1164 68.5849 12.2182 68.5849 15.4597C68.5849 18.7012 66.1652 19.803 64.5627 19.803Z" fill="white"/>
<path d="M127.443 9.45541L126.449 6.53325H122.331V24.4494H128.052V15.4275C128.052 12.2977 130.776 10.8287 133.644 11.9305L136.016 6.83664C129.975 4.16998 127.443 9.45541 127.443 9.45541Z" fill="white"/>
<path d="M118.101 6.53353H113.982L113.293 8.51357C113.293 8.51357 111.434 6.08643 107.492 6.08643C103.534 6.08643 98.3584 8.72116 98.3584 15.4597C98.3584 22.1343 103.534 24.8968 107.492 24.8968C112.123 24.8968 113.293 21.8788 113.293 21.8788V24.4657H118.101V21.9108V6.53353ZM108.502 19.803C106.899 19.803 104.48 18.7012 104.48 15.4597C104.48 12.2182 106.899 11.1164 108.502 11.1164C110.104 11.1164 112.524 12.2182 112.524 15.4597C112.524 18.7012 110.104 19.803 108.502 19.803Z" fill="white"/>
<path d="M87.0771 5.68701C80.0424 5.68701 76.4048 10.6531 76.4048 15.2998C76.4048 19.9465 79.6738 25.4714 86.5643 25.4714C93.4549 25.4714 95.7945 20.9844 96.163 20.2659L92.3812 17.8068C91.6441 18.9884 89.8333 20.3776 87.5098 20.3776C85.6189 20.3776 83.4876 19.1481 82.7665 17.0084H96.3072C96.6918 11.9146 94.1119 5.68701 87.0771 5.68701ZM83.0389 13.1281C83.744 11.675 85.1061 10.717 86.9169 10.717C89.5609 10.717 90.4262 13.1281 90.4262 13.1281H83.0389Z" fill="white"/>
</g>
<defs>
<clipPath id="clip0_1:40">
<rect width="136" height="32" fill="white" transform="translate(0 0.369629)"/>
</clipPath>
</defs>
</svg>
